# xmcd
#
# Track frame offsets:
#	150
#	23968
#	41435
#	62609
#	78518
#	95524
#	116050
#	132670
#	154406
#	175796
#	191259
#
# Disc length: 2853 seconds
#
# Revision: 1
# Processed by: cddbd v1.5.2PL0 Copyright (c) Steve Scherf et al.
# Submitted via: audiograbber 1.83.01
#
DISCID=900b230b
DTITLE=The Band of Heathens - The Band of Heathens
DYEAR=2012
DGENRE=Blues Rock
TTITLE0=Don't Call On M
TTITLE1=Jackson Sttion
TTITLE2=Maple Tears
TTITLE3=Hert On My Sleve
TTITLE4=Second Line
TTITLE5=40 Days
TTITLE6=This I Know
TTITLE7=Unleeping Eye
TTITLE8=Cornbread
TTITLE9=Nine Steps Down
TTITLE10=Hallelujah
EXTD=
EXTT0=
EXTT1=
EXTT2=
EXTT3=
EXTT4=
EXTT5=
EXTT6=
EXTT7=
EXTT8=
EXTT9=
EXTT10=
PLAYORDER=
